<?xml version="1.0" standalone="no"?><!DOCTYPE svg PUBLIC "-//W3C//DTD SVG 1.1//EN" "http://www.w3.org/Graphics/SVG/1.1/DTD/svg11.dtd"><svg t="1758716067070" class="icon" viewBox="0 0 1072 1024" version="1.1" xmlns="http://www.w3.org/2000/svg" p-id="4910" xmlns:xlink="http://www.w3.org/1999/xlink" width="209.375" height="200"><path d="M277.297 659.433c-41.496-0.115-75.132-35.948-75.132-77.444V413.807c0.115-41.496 33.636-76.288 75.132-76.288l75.133-1.156v22.887l-80.912 2.311c-19.766 0.232-44.964 32.48-45.311 52.246l-1.156 169.107c-0.347 20.343 29.59 55.598 49.934 56.06l356.823-4.623v23.695l-354.51 1.387z m483.739-2.311v-25.199l74.901-1.156c10.056 0.116 26.586-4.854 33.637-12.02 7.05-7.052 14.448-24.852 14.333-34.793V412.652c0.115-10.057-8.323-30.054-15.49-37.104-7.05-7.051-23.695-13.293-33.636-13.178l-357.747-1.155v-22.54h358.903a73.773 73.773 0 0 1 53.287 21.846c14.101 14.102 21.961 33.29 21.846 53.286v166.795a73.773 73.773 0 0 1-21.846 53.286c-14.102 14.102-33.29 21.962-53.287 21.847h-74.901v1.387z m0 0" fill="#39f2ae" p-id="4911"></path><path d="M472.526 852.466c-41.38-0.115-75.017-33.636-75.132-75.132v-60.106h26.238v60.106c0 9.594 4.97 24.505 11.675 31.324 6.704 6.82 19.419 19.882 29.013 19.766h174.885c10.057 0.116 27.742-6.01 34.793-13.177 7.05-7.051 17.916-29.475 17.8-39.416V422.823h22.54V777.45a73.773 73.773 0 0 1-21.846 53.287c-14.102 14.102-33.29 21.962-53.287 21.846H472.526z m-73.514-284V218.462c0.116-41.497 33.636-75.017 75.133-75.133h166.794c19.997-0.231 39.185 7.629 53.402 21.846 14.102 14.102 21.962 33.405 21.846 53.402v72.243h-22.886v-72.358c-0.231-19.766-24.39-50.744-44.155-51.09h-176.62c-19.765 0.23-48.547 30.052-48.778 49.934v348.5l-24.736 1.155v1.503z m0 0" fill="#39f2ae" p-id="4912"></path><path d="M649.146 248.516a49.125 49.125 0 1 0 98.25 0 49.125 49.125 0 1 0-98.25 0z" fill="#39f2ae" p-id="4913"></path><path d="M360.983 542.689a49.125 49.125 0 1 0 98.25 0 49.125 49.125 0 1 0-98.25 0z" fill="#39f2ae" p-id="4914"></path><path d="M654.116 440.74a49.125 49.125 0 1 0 98.25 0 49.125 49.125 0 1 0-98.25 0z" fill="#39f2ae" p-id="4915"></path><path d="M360.983 740.692a49.125 49.125 0 1 0 98.25 0 49.125 49.125 0 1 0-98.25 0z" fill="#39f2ae" p-id="4916"></path></svg>